<?xml version="1.0" encoding="utf-8"?>
<!-- Generator: Adobe Illustrator 19.1.1, SVG Export Plug-In . SVG Version: 6.00 Build 0)  -->
<svg version="1.1" id="Layer_1" xmlns="http://www.w3.org/2000/svg" xmlns:xlink="http://www.w3.org/1999/xlink" x="0px" y="0px"
	 viewBox="0 0 17.4 17.5" style="enable-background:new 0 0 17.4 17.5;" xml:space="preserve">
<style type="text/css">
	.st0{fill:#FFFFFF;}
</style>
<path class="st0" d="M14,0.3H3.5c-1.8,0-3.3,1.5-3.3,3.3V7v7c0,1.8,1.5,3.3,3.3,3.3H14c1.8,0,3.3-1.5,3.3-3.3V7V3.5
	C17.3,1.7,15.8,0.3,14,0.3z M14.9,2.2l0.4,0v0.4v2.5l-2.9,0l0-2.9L14.9,2.2z M6.3,7c0.5-0.8,1.4-1.2,2.4-1.2s1.9,0.5,2.4,1.2
	c0.4,0.5,0.6,1.1,0.6,1.7c0,1.7-1.3,3-3,3c-1.7,0-3-1.3-3-3C5.8,8.1,6,7.5,6.3,7z M15.6,14c0,0.9-0.7,1.6-1.6,1.6H3.5
	c-0.9,0-1.6-0.7-1.6-1.6V7h2.5C4.2,7.6,4.1,8.1,4.1,8.8c0,2.6,2.1,4.7,4.7,4.7c2.6,0,4.7-2.1,4.7-4.7c0-0.6-0.1-1.2-0.3-1.7h2.5V14z
	"/>
</svg>
