<?xml version="1.0" encoding="utf-8"?>
<!-- Generator: Adobe Illustrator 19.1.1, SVG Export Plug-In . SVG Version: 6.00 Build 0)  -->
<svg version="1.1" id="Layer_1" xmlns="http://www.w3.org/2000/svg" xmlns:xlink="http://www.w3.org/1999/xlink" x="0px" y="0px"
	 viewBox="0 0 18.1 19" style="enable-background:new 0 0 18.1 19;" xml:space="preserve">
<style type="text/css">
	.st0{fill:#2D2E2D;stroke:#2D2E2D;stroke-linecap:round;stroke-linejoin:round;stroke-miterlimit:10;}
</style>
<path class="st0" d="M17.5,4.7L17.5,4.7C17.5,4.6,17.6,4.6,17.5,4.7C17.6,4.6,17.6,4.6,17.5,4.7c0-0.1,0-0.1,0-0.1c0,0,0,0,0,0l0,0
	c0,0,0,0,0,0c0,0,0,0,0,0c0,0,0,0,0,0l0,0l-6-3.8c-0.1-0.1-0.2,0-0.3,0L7.5,5.1L6.6,3c0,0,0,0,0,0c0,0,0,0,0,0c0,0,0,0,0,0
	c0,0,0,0,0,0l0,0c0,0,0,0,0,0l0,0c0,0,0,0,0,0c0,0,0,0,0,0h0l0,0h0h0H0.8c-0.1,0-0.1,0-0.1,0.1c0,0-0.1,0.1-0.1,0.1l0.3,10.2l0,0
	c0,0,0,0,0,0c0,0,0,0,0,0l0,0l0,0l0,0l2.6,5c0,0.1,0.1,0.1,0.2,0.1c0,0,0.1,0,0.1,0l9.9-5l0,0c0,0,0.1,0,0.1-0.1l0,0v0h0L17.5,4.7z
	 M1.9,13l15.1-8l-3.5,8H1.9z M11.4,1L17,4.6l-15.1,8L11.4,1z M6.1,3.3l-4.8,9.2L1,3.3H6.1z"/>
</svg>
