<?xml version="1.0" encoding="utf-8"?>
<!-- Generator: Adobe Illustrator 19.1.1, SVG Export Plug-In . SVG Version: 6.00 Build 0)  -->
<svg version="1.1" id="Layer_1" xmlns="http://www.w3.org/2000/svg" xmlns:xlink="http://www.w3.org/1999/xlink" x="0px" y="0px"
	 viewBox="0 0 68.7 85.8" style="enable-background:new 0 0 68.7 85.8;" xml:space="preserve">
<style type="text/css">
	.st0{fill:#FFFFFF;}
	.st1{fill:#DB5653;}
	.st2{fill:#F16D60;}
</style>
<g>
	<circle class="st0" cx="37.2" cy="51.5" r="22.9"/>
	<g>
		<circle class="st1" cx="34.4" cy="49.9" r="7.3"/>
		<path class="st1" d="M46.4,36.6c3.2,3.3,4.6,7.8,4.6,12.8v18c-3.3,0-6.3-0.5-8.4-3.5c-1.8,1.9-5.1,3.6-8.6,3.6
			c-4.9,0-9.3-2-12.5-5.3l21,21.2c12.5-3.2,22.3-13.4,24.8-26.1L46.4,36.6z"/>
		<path class="st2" d="M55.6,25.5L34.4,1.3L13.2,25.5C3.2,36.9-0.5,47.9,1.4,57.4c3,15.3,16.5,27.1,33,27.1c2.9,0,5.7-0.4,8.3-1
			l-21-21c-3.2-3.2-5.2-7.7-5.2-12.7c0-9.9,8-17.9,17.9-17.9c4.9,0,9.4,2,12.6,5.2l20.3,20.3c0-0.1,0-0.1,0-0.2
			C69.2,47.9,65.6,36.9,55.6,25.5z"/>
	</g>
</g>
</svg>
