<?xml version="1.0" encoding="utf-8"?>
<!-- Generator: Adobe Illustrator 19.1.1, SVG Export Plug-In . SVG Version: 6.00 Build 0)  -->
<svg version="1.1" id="Layer_1" xmlns="http://www.w3.org/2000/svg" xmlns:xlink="http://www.w3.org/1999/xlink" x="0px" y="0px"
	 viewBox="0 0 163.4 24.8" style="enable-background:new 0 0 163.4 24.8;" xml:space="preserve">
<style type="text/css">
	.st0{display:none;}
	.st1{display:inline;}
	.st2{fill:#38BEB6;}
	.st3{font-family:'BigJohn';}
	.st4{font-size:16.6097px;}
	.st5{fill:#F16D60;}
	.st6{fill:#DB5653;}
</style>
<g>
	<g>
		<g class="st0">
			<text transform="matrix(1 0 0 1 41.0739 18.1792)" class="st1"><tspan x="0" y="0" class="st2 st3 st4">ALCHEMY</tspan><tspan x="67.8" y="0" class="st5 st3 st4">WINGS</tspan></text>
		</g>
		<g>
			<circle class="st6" cx="10.2" cy="14.6" r="2.1"/>
			<path class="st6" d="M13.7,10.8c0.9,0.9,1.3,2.2,1.3,3.6v5.1c-0.9,0-1.8-0.1-2.4-1c-0.5,0.5-1.4,1-2.4,1c-1.4,0-2.6-0.6-3.6-1.5
				l6,6c3.6-0.9,6.3-3.8,7-7.4L13.7,10.8z"/>
			<path class="st5" d="M16.3,7.7l-6-6.9l-6,6.9c-2.8,3.2-3.9,6.4-3.4,9.1c0.8,4.3,4.7,7.7,9.4,7.7c0.8,0,1.6-0.1,2.4-0.3l-6-6
				c-0.9-0.9-1.5-2.2-1.5-3.6c0-2.8,2.3-5.1,5.1-5.1c1.4,0,2.7,0.6,3.6,1.5l5.8,5.8c0,0,0,0,0,0C20.2,14,19.1,10.9,16.3,7.7z"/>
		</g>
	</g>
	<g>
		<g>
			<rect x="125.8" y="6.9" class="st5" width="2.4" height="11.3"/>
			<polygon class="st5" points="121.1,6.9 117.3,15 114.7,9.3 113.9,9.3 111.3,15 107.6,6.9 105,6.9 110.3,18.3 112,18.3 
				114.3,13.3 116.6,18.3 118.4,18.3 123.6,6.9 			"/>
			<path class="st5" d="M159.3,18.3c2,0,3.7-1.5,3.7-3.4c0-0.8-0.3-1.5-0.8-2.1c-0.7-0.8-1.8-1.3-2.9-1.3c-0.8,0-1.5-0.6-1.5-1.3
				c0-0.7,0.7-1.3,1.5-1.3c0.7,0,1.2,0.5,1.4,1h2.3c-0.2-1.7-1.8-3-3.7-3c-2.1,0-3.7,1.4-3.7,3.2c0,1.8,1.7,3.3,3.7,3.3
				c0.8,0,1.5,0.6,1.5,1.4c0,0.8-0.7,1.4-1.5,1.4c-0.6,0-1.2-0.3-1.4-0.8h-2.3C155.9,17.1,157.4,18.3,159.3,18.3z"/>
			<polygon class="st5" points="138.2,6.9 138.2,13.2 132.1,6.9 131.1,6.9 131.1,18.3 133.5,18.3 133.5,11.6 139.5,18.3 140.5,18.3 
				140.5,6.9 			"/>
			<polygon class="st2" points="100.8,6.9 98.2,11.4 95.6,6.9 92.9,6.9 96.9,13.8 96.9,18.3 99.1,18.3 99.1,13.8 103.5,6.9 			"/>
			<polygon class="st2" points="40.3,6.9 38,6.9 38,18.3 44.6,18.3 44.6,15.9 40.3,15.9 			"/>
			<polygon class="st2" points="72.1,8.6 76.4,8.6 76.4,6.9 69.7,6.9 69.7,18.3 76.4,18.3 76.4,16.3 72.1,16.3 72.1,13.3 75.9,13.3 
				75.9,11.4 72.1,11.4 			"/>
			<path class="st2" d="M45.7,12.7c0,3.1,2.5,5.7,5.7,5.7c1.4,0,2.7-0.5,3.7-1.4l-1.7-1.6c-0.6,0.4-1.3,0.7-2,0.7
				c-1.9,0-3.3-1.4-3.3-3.3c0-1.9,1.4-3.3,3.3-3.3c0.8,0,1.5,0.2,2,0.6L55,8.3C54,7.5,52.7,7,51.3,7C48.2,7,45.7,9.5,45.7,12.7z"/>
			<polygon class="st2" points="64.2,18.3 66.5,18.3 66.5,6.9 64.2,6.9 64.2,11.2 59.5,11.2 59.5,6.9 57.1,6.9 57.1,18.3 59.5,18.3 
				59.5,13.6 64.2,13.6 			"/>
			<path class="st5" d="M153.6,12.2h-4.7v0.6h0v1.3h2.5c0,0,0,0.2-0.1,0.5c-0.1,0.2-0.2,0.5-0.4,0.7c-0.5,0.5-1.2,0.8-2.3,0.8
				c-1.8,0-3.3-1.6-3.3-3.4c0-1.8,1.5-3.3,3.3-3.3c0.7,0,1.4,0.2,2,0.7l1.7-1.7c-1-0.9-2.3-1.4-3.7-1.4c-3.1,0-5.7,2.5-5.7,5.7
				c0,3.1,2.5,5.7,5.6,5.7c3.5,0,4.9-2.5,5-5.5h0l0,0L153.6,12.2z"/>
			<path class="st2" d="M30.3,6.9h-0.9L24,18.3h2.2l0.7-1.7h5.6l0.7,1.7h2.2L30.3,6.9z M29.8,10.7l1.8,3.9H28L29.8,10.7z"/>
			<polygon class="st2" points="90.3,6.9 85.4,11.4 85.4,11.4 85.4,11.4 85.4,11.4 80.4,6.9 79.4,6.9 79.4,18.3 81.7,18.3 
				81.7,11.2 85.4,14.5 85.4,14.5 85.4,14.5 85.4,14.5 85.4,14.5 85.4,14.5 89,11.2 89,18.3 91.3,18.3 91.3,6.9 			"/>
		</g>
	</g>
</g>
</svg>
