<?xml version="1.0" encoding="utf-8"?>
<!-- Generator: Adobe Illustrator 19.1.1, SVG Export Plug-In . SVG Version: 6.00 Build 0)  -->
<svg version="1.1" id="Layer_1" xmlns="http://www.w3.org/2000/svg" xmlns:xlink="http://www.w3.org/1999/xlink" x="0px" y="0px"
	 viewBox="0 0 233 135.7" style="enable-background:new 0 0 233 135.7;" xml:space="preserve">
<style type="text/css">
	.st0{fill:#FFFFFF;}
	.st1{fill:#DB5653;}
	.st2{fill:#F16D60;}
	.st3{fill:#38BEB6;}
</style>
<g>
	<g>
		<circle class="st0" cx="120.8" cy="51.9" r="22.9"/>
		<g>
			<circle class="st1" cx="118" cy="50.3" r="7.3"/>
			<path class="st1" d="M130,37.1c3.2,3.3,4.6,7.8,4.6,12.8v18c-3.3,0-6.3-0.5-8.4-3.5c-1.8,1.9-5.1,3.6-8.6,3.6
				c-4.9,0-9.3-2-12.5-5.3l21,21.2c12.5-3.2,22.3-13.4,24.8-26.1L130,37.1z"/>
			<path class="st2" d="M139.2,26L117.9,1.8L96.7,26c-10,11.4-13.6,22.4-11.8,31.9c3,15.3,16.5,27.1,33,27.1c2.9,0,5.7-0.4,8.3-1
				l-21-21c-3.2-3.2-5.2-7.7-5.2-12.7c0-9.9,8-17.9,17.9-17.9c4.9,0,9.4,2,12.6,5.2L150.9,58c0-0.1,0-0.1,0-0.2
				C152.8,48.4,149.1,37.4,139.2,26z"/>
		</g>
	</g>
	<g>
		<g>
			<rect x="169.4" y="115.2" class="st2" width="3.9" height="18.7"/>
			<polygon class="st2" points="161.6,115.2 155.4,128.4 151.1,119 149.8,119 145.5,128.4 139.4,115.2 135.2,115.2 143.8,133.9 
				146.7,133.9 150.5,125.7 154.3,133.9 157.2,133.9 165.9,115.2 			"/>
			<path class="st2" d="M224.8,133.9c3.4,0,6.1-2.5,6.1-5.6c0-1.3-0.5-2.5-1.3-3.5c-1.2-1.3-2.9-2.1-4.8-2.1c-1.4,0-2.5-1-2.5-2.2
				c0-1.2,1.1-2.2,2.5-2.2c1.1,0,2,0.8,2.4,1.7h3.7c-0.4-2.8-2.9-4.9-6.1-4.9c-3.4,0-6.1,2.3-6.1,5.3c0,3,2.7,5.5,6.1,5.5
				c1.4,0,2.5,1,2.5,2.3c0,1.3-1.1,2.3-2.5,2.3c-1,0-2-0.6-2.3-1.3h-3.8C219.1,131.9,221.6,133.9,224.8,133.9z"/>
			<polygon class="st2" points="189.9,115.2 189.9,125.5 179.9,115.2 178.2,115.2 178.2,133.9 182.1,133.9 182.1,122.9 192.1,133.9 
				193.8,133.9 193.8,115.2 			"/>
			<polygon class="st3" points="128.1,115.2 123.8,122.6 119.6,115.2 115.1,115.2 121.8,126.5 121.8,133.9 125.3,133.9 125.3,126.5 
				132.6,115.2 			"/>
			<polygon class="st3" points="28.3,115.2 24.4,115.2 24.4,133.9 35.4,133.9 35.4,130 28.3,130 			"/>
			<polygon class="st3" points="80.8,118 87.8,118 87.8,115.2 76.9,115.2 76.9,133.9 87.8,133.9 87.8,130.7 80.8,130.7 80.8,125.7 
				87.1,125.7 87.1,122.6 80.8,122.6 			"/>
			<path class="st3" d="M37.1,124.6c0,5.2,4.2,9.4,9.4,9.4c2.3,0,4.4-0.8,6.1-2.3l-2.8-2.7c-0.9,0.7-2.1,1.1-3.4,1.1
				c-3.1,0-5.4-2.3-5.4-5.4c0-3.1,2.3-5.4,5.4-5.4c1.3,0,2.4,0.4,3.3,1.1l2.7-2.7c-1.7-1.4-3.8-2.2-6.1-2.2
				C41.3,115.3,37.1,119.5,37.1,124.6z"/>
			<polygon class="st3" points="67.7,133.9 71.6,133.9 71.6,115.2 67.7,115.2 67.7,122.2 59.9,122.2 59.9,115.2 56.1,115.2 
				56.1,133.9 59.9,133.9 59.9,126.1 67.7,126.1 			"/>
			<path class="st2" d="M215.3,123.8h-7.7v1h0v2.1h4.2c0,0,0,0.3-0.1,0.8c-0.1,0.4-0.4,0.8-0.6,1.1c-0.8,0.9-2,1.4-3.7,1.4
				c-3,0-5.5-2.6-5.5-5.7c0-3,2.4-5.5,5.5-5.5c1.2,0,2.3,0.4,3.3,1.1l2.7-2.7c-1.7-1.4-3.8-2.2-6.1-2.2c-5.2,0-9.4,4.2-9.4,9.4
				c0,5.2,4.2,9.4,9.3,9.4c5.7,0,8-4.1,8.2-9.1h0l0,0L215.3,123.8z"/>
			<path class="st3" d="M11.7,115.2h-1.5l-8.7,18.7h3.7l1.2-2.8h9.2l1.2,2.8h3.7L11.7,115.2z M10.9,121.4l3,6.4H8L10.9,121.4z"/>
			<polygon class="st3" points="110.8,115.2 102.7,122.5 102.7,122.5 102.7,122.5 102.7,122.5 94.5,115.2 92.8,115.2 92.8,133.9 
				96.7,133.9 96.7,122.2 102.7,127.6 102.7,127.6 102.7,127.6 102.7,127.6 102.7,127.6 102.7,127.6 108.7,122.2 108.7,133.9 
				112.5,133.9 112.5,115.2 			"/>
		</g>
	</g>
</g>
</svg>
