<?xml version="1.0" encoding="utf-8"?>
<!-- Generator: Adobe Illustrator 19.1.1, SVG Export Plug-In . SVG Version: 6.00 Build 0)  -->
<svg version="1.1" id="Layer_1" xmlns="http://www.w3.org/2000/svg" xmlns:xlink="http://www.w3.org/1999/xlink" x="0px" y="0px"
	 viewBox="0 0 16.3 13.6" style="enable-background:new 0 0 16.3 13.6;" xml:space="preserve">
<style type="text/css">
	.st0{fill:#3A3B3B;}
</style>
<g>
	<polygon class="st0" points="12.1,3.6 14.9,6.4 5.3,6.4 5.3,7.2 14.9,7.2 12.1,10 12.6,10.5 16.3,6.8 12.6,3.1 	"/>
	<path class="st0" d="M7.8,0.3H2.7c-1.4,0-2.5,1.1-2.5,2.5v8.1c0,1.4,1.1,2.5,2.5,2.5h5.1c1.4,0,2.5-1.1,2.5-2.5V9H9.6v1.9
		c0,1-0.8,1.8-1.8,1.8H2.7c-1,0-1.8-0.8-1.8-1.8V2.7C1,1.8,1.8,1,2.7,1h5.1c1,0,1.8,0.8,1.8,1.8v1.9h0.7V2.7
		C10.3,1.4,9.2,0.3,7.8,0.3z"/>
</g>
</svg>
